<svg width="28" height="31" viewBox="0 0 28 31" fill="none" xmlns="http://www.w3.org/2000/svg">
<mask id="mask0_284_87" style="mask-type:luminance" maskUnits="userSpaceOnUse" x="0" y="0" width="28" height="31">
<path d="M28 0H0V31H28V0Z" fill="white"/>
</mask>
<g mask="url(#mask0_284_87)">
<path d="M20.8122 9.74023H7.18783L0 16.9531L13.9976 30.9995L27.9952 16.9531L20.8122 9.74023ZM13.3611 13.1354V26.1589L9.25517 13.8029C9.03982 13.1498 9.1451 12.4583 9.54709 11.8964C9.94907 11.3394 10.5712 11.0176 11.2555 11.0176C12.4184 11.0224 13.3611 11.9685 13.3611 13.1354ZM11.5618 24.7807L5.49855 14.6337C5.19227 14.1198 5.27363 13.4715 5.69475 13.0489C5.9436 12.7992 6.26901 12.6696 6.604 12.6696C6.70449 12.6696 6.80499 12.6792 6.90549 12.7032C7.34575 12.8088 7.69509 13.1258 7.83387 13.558L11.5618 24.7807ZM10.7913 25.9764L2.71338 17.8703C2.2109 17.3661 2.2109 16.5401 2.71338 16.0359L2.87609 15.8726C3.12015 15.6277 3.44556 15.4933 3.79012 15.4933C3.84276 15.4933 3.8954 15.4981 3.95283 15.5029C4.35003 15.5509 4.69937 15.7766 4.90514 16.1223L10.7913 25.9764ZM16.4382 24.7807L20.1661 13.558C20.3097 13.1258 20.6542 12.8088 21.0945 12.7032C21.195 12.6792 21.2955 12.6696 21.396 12.6696C21.7358 12.6696 22.0612 12.804 22.3052 13.0489C22.7264 13.4715 22.8077 14.1246 22.5015 14.6337L16.4382 24.7807ZM18.74 13.8029L14.6341 26.1589V13.1354C14.6341 11.9685 15.5816 11.0224 16.7397 11.0224C17.424 11.0224 18.0461 11.3442 18.4481 11.9012C18.8501 12.4583 18.9554 13.1498 18.74 13.8029ZM17.2039 25.9764L23.0949 16.1223C23.3006 15.7766 23.65 15.5509 24.0472 15.5029C24.0998 15.4981 24.1525 15.4933 24.2099 15.4933C24.5496 15.4933 24.8751 15.6277 25.1239 15.8726L25.2866 16.0359C25.7891 16.5401 25.7891 17.3661 25.2866 17.8703L17.2039 25.9764Z" fill="#DBAF36"/>
<path d="M21.1853 1.90647H19.9124V3.55842C19.9124 5.01828 18.7303 6.20442 17.2756 6.20442C15.8208 6.20442 14.6387 5.01828 14.6387 3.55842V0H13.3658V3.55842C13.3658 5.01828 12.1838 6.20442 10.729 6.20442C9.2742 6.20442 8.08739 5.01828 8.08739 3.55842V1.90647H6.81445V7.4818H21.1853V1.90647Z" fill="#DBAF36"/>
</g>
</svg>
