<svg xmlns="http://www.w3.org/2000/svg" width="28" height="31" viewBox="0 0 28 31" fill="none"><g clip-path="url(#clip0_136_10)"><path d="M20.8122 9.74075H7.18783L0 16.9536L13.9976 31L27.9952 16.9536L20.8122 9.74075ZM13.3611 13.1359V26.1594L9.25517 13.8034C9.03982 13.1503 9.1451 12.4588 9.54709 11.8969C9.94907 11.3399 10.5712 11.0181 11.2555 11.0181C12.4184 11.0229 13.3611 11.969 13.3611 13.1359ZM11.5618 24.7812L5.49855 14.6342C5.19227 14.1203 5.27363 13.472 5.69475 13.0494C5.9436 12.7997 6.26901 12.6701 6.604 12.6701C6.70449 12.6701 6.80499 12.6797 6.90549 12.7037C7.34575 12.8093 7.69509 13.1263 7.83387 13.5585L11.5618 24.7812ZM10.7913 25.9769L2.71338 17.8708C2.2109 17.3666 2.2109 16.5406 2.71338 16.0364L2.87609 15.8731C3.12015 15.6282 3.44556 15.4938 3.79012 15.4938C3.84276 15.4938 3.8954 15.4986 3.95283 15.5034C4.35003 15.5514 4.69937 15.7771 4.90514 16.1228L10.7913 25.9769ZM16.4382 24.7812L20.1661 13.5585C20.3097 13.1263 20.6542 12.8093 21.0945 12.7037C21.195 12.6797 21.2955 12.6701 21.396 12.6701C21.7358 12.6701 22.0612 12.8045 22.3052 13.0494C22.7264 13.472 22.8077 14.1251 22.5015 14.6342L16.4382 24.7812ZM18.74 13.8034L14.6341 26.1594V13.1359C14.6341 11.969 15.5816 11.0229 16.7397 11.0229C17.424 11.0229 18.0461 11.3447 18.4481 11.9017C18.8501 12.4588 18.9554 13.1503 18.74 13.8034ZM17.2039 25.9769L23.0949 16.1228C23.3006 15.7771 23.65 15.5514 24.0472 15.5034C24.0998 15.4986 24.1525 15.4938 24.2099 15.4938C24.5496 15.4938 24.8751 15.6282 25.1239 15.8731L25.2866 16.0364C25.7891 16.5406 25.7891 17.3666 25.2866 17.8708L17.2039 25.9769Z" fill="#DBAF36"></path><path d="M21.1855 1.90647H19.9126V3.55842C19.9126 5.01828 18.7305 6.20442 17.2758 6.20442C15.821 6.20442 14.6389 5.01828 14.6389 3.55842V0H13.366V3.55842C13.366 5.01828 12.184 6.20442 10.7292 6.20442C9.27439 6.20442 8.08758 5.01828 8.08758 3.55842V1.90647H6.81464V7.4818H21.1855V1.90647Z" fill="#DBAF36"></path></g><defs><clipPath id="clip0_136_10"><rect width="28" height="31" fill="white"></rect></clipPath></defs></svg>